<svg width="18" height="18" viewBox="0 0 18 18" fill="none" xmlns="http://www.w3.org/2000/svg">
<path d="M9 0.5625C10.7902 0.5625 12.5076 1.27319 13.7734 2.53906C15.0393 3.80493 15.75 5.52229 15.75 7.3125C15.75 11.0404 12.3465 14.9571 10.373 16.915C9.60199 17.68 8.39801 17.68 7.62695 16.915C5.65349 14.9571 2.25 11.0404 2.25 7.3125C2.25 5.52229 2.96069 3.80493 4.22656 2.53906C5.49243 1.27319 7.20979 0.5625 9 0.5625ZM9 5.0625C7.75736 5.0625 6.75 6.06986 6.75 7.3125C6.75 8.55514 7.75736 9.5625 9 9.5625C10.2426 9.5625 11.25 8.55514 11.25 7.3125C11.25 6.06986 10.2426 5.0625 9 5.0625Z" fill="#CCCCCC"/>
</svg>
