<svg width="20" height="20" viewBox="0 0 20 20" fill="none" xmlns="http://www.w3.org/2000/svg">
<path d="M9.99984 19.1667C11.8408 19.1667 13.3332 17.8608 13.3332 16.25H6.6665C6.6665 17.8608 8.15889 19.1667 9.99984 19.1667Z" fill="#D9D9D9"/>
<path d="M3.33317 8.33329C3.33317 4.65139 6.31794 1.66663 9.99984 1.66663C13.6817 1.66663 16.6665 4.6514 16.6665 8.33329V10.5849C16.6622 11.5102 17.178 12.0617 17.975 12.8699C18.2049 13.103 18.3332 13.4172 18.3332 13.7447C18.3332 14.438 17.7712 15 17.0779 15H2.92421C2.2296 15 1.6665 14.4369 1.6665 13.7423C1.6665 13.4162 1.79332 13.1031 2.02167 12.8703C2.81513 12.0616 3.34004 11.5104 3.33317 10.5849V8.33329Z" fill="#D9D9D9"/>
</svg>
