<svg width="14" height="14" viewBox="0 0 14 14" fill="none" xmlns="http://www.w3.org/2000/svg">
<mask id="mask0_7288_35961" style="mask-type:alpha" maskUnits="userSpaceOnUse" x="0" y="0" width="14" height="14">
<rect width="14" height="14" fill="#D9D9D9"/>
</mask>
<g mask="url(#mask0_7288_35961)">
<path d="M6.99991 12.3685C6.81373 12.3685 6.65657 12.3045 6.52843 12.1764C6.40039 12.0483 6.33637 11.8911 6.33637 11.7049V7.66695H2.29489C2.10871 7.66695 1.95155 7.60293 1.82341 7.47489C1.69537 7.34675 1.63135 7.18959 1.63135 7.00341C1.63135 6.81723 1.69537 6.66007 1.82341 6.53193C1.95155 6.40389 2.10871 6.33987 2.29489 6.33987H6.33287V2.29489C6.33287 2.10871 6.39689 1.95155 6.52493 1.82341C6.65307 1.69537 6.81023 1.63135 6.99641 1.63135C7.18259 1.63135 7.33975 1.69537 7.46789 1.82341C7.59593 1.95155 7.65995 2.10871 7.65995 2.29489V6.33637H11.7049C11.8911 6.33637 12.0483 6.40039 12.1764 6.52843C12.3045 6.65657 12.3685 6.81373 12.3685 6.99991C12.3685 7.18609 12.3045 7.34325 12.1764 7.47139C12.0483 7.59943 11.8911 7.66345 11.7049 7.66345H7.66345V11.7049C7.66345 11.8911 7.59943 12.0483 7.47139 12.1764C7.34325 12.3045 7.18609 12.3685 6.99991 12.3685Z" fill="#666666"/>
</g>
<mask id="mask1_7288_35961" style="mask-type:alpha" maskUnits="userSpaceOnUse" x="0" y="0" width="14" height="14">
<rect width="14" height="14" fill="#D9D9D9"/>
</mask>
<g mask="url(#mask1_7288_35961)">
</g>
</svg>
