<svg width="24" height="24" viewBox="0 0 24 24" fill="none" xmlns="http://www.w3.org/2000/svg">
<rect width="24" height="24" rx="12" fill="white" fill-opacity="0.2"/>
<mask id="mask0_7237_28883" style="mask-type:alpha" maskUnits="userSpaceOnUse" x="2" y="2" width="20" height="20">
<rect x="2" y="2" width="20" height="20" fill="#D9D9D9"/>
</mask>
<g mask="url(#mask0_7237_28883)">
<path d="M12 18C10.3333 18 8.91667 17.4167 7.75 16.25C6.58333 15.0833 6 13.6667 6 12C6 10.3333 6.58333 8.91667 7.75 7.75C8.91667 6.58333 10.3333 6 12 6C12.9028 6 13.7396 6.1875 14.5104 6.5625C15.2812 6.9375 15.9444 7.4375 16.5 8.0625V6.75C16.5 6.5375 16.5715 6.35937 16.7144 6.21562C16.8573 6.07187 17.0344 6 17.2456 6C17.4569 6 17.6354 6.07187 17.7812 6.21562C17.9271 6.35937 18 6.5375 18 6.75V10.25C18 10.4625 17.9281 10.6406 17.7844 10.7844C17.6406 10.9281 17.4625 11 17.25 11H13.75C13.5375 11 13.3594 10.9285 13.2156 10.7856C13.0719 10.6427 13 10.4656 13 10.2544C13 10.0431 13.0719 9.86458 13.2156 9.71875C13.3594 9.57292 13.5375 9.5 13.75 9.5H15.7292C15.3264 8.88889 14.7986 8.40278 14.1458 8.04167C13.4931 7.68056 12.7778 7.5 12 7.5C10.75 7.5 9.6875 7.9375 8.8125 8.8125C7.9375 9.6875 7.5 10.75 7.5 12C7.5 13.25 7.9375 14.3125 8.8125 15.1875C9.6875 16.0625 10.75 16.5 12 16.5C13.0417 16.5 13.9583 16.184 14.75 15.5521C15.5417 14.9201 16.0625 14.125 16.3125 13.1667C16.3681 12.9722 16.4826 12.8194 16.6562 12.7083C16.8299 12.5972 17.0141 12.5556 17.209 12.5833C17.4169 12.6111 17.5833 12.7049 17.7083 12.8646C17.8333 13.0243 17.875 13.2014 17.8333 13.3958C17.5139 14.7292 16.8194 15.8299 15.75 16.6979C14.6806 17.566 13.4306 18 12 18Z" fill="white"/>
</g>
</svg>
