<svg width="24" height="24" viewBox="0 0 24 24" fill="none" xmlns="http://www.w3.org/2000/svg">
<path d="M19 20C19.5523 20 20 19.5523 20 19V18C20 16.9391 19.5786 15.9217 18.8284 15.1716C18.0783 14.4214 17.0609 14 16 14H8C6.93913 14 5.92172 14.4214 5.17157 15.1716C4.42143 15.9217 4 16.9391 4 18V19" fill="#222222"/>
<path d="M20 18V19C20 19.5523 19.5523 20 19 20H5C4.44772 20 4 19.5523 4 19V18C4 16.9391 4.42143 15.9217 5.17157 15.1716C5.92172 14.4214 6.93913 14 8 14H16C17.0609 14 18.0783 14.4214 18.8284 15.1716C19.5786 15.9217 20 16.9391 20 18Z" stroke="#222222" stroke-width="2" stroke-linecap="round" stroke-linejoin="round"/>
<path d="M12 11C14.2091 11 16 9.20914 16 7C16 4.79086 14.2091 3 12 3C9.79086 3 8 4.79086 8 7C8 9.20914 9.79086 11 12 11Z" fill="#222222" stroke="#222222" stroke-width="2" stroke-linecap="round" stroke-linejoin="round"/>
</svg>
